<?xml version="1.0" encoding="UTF-8"?>
<svg width="800" height="600" version="1.1" viewBox="0 0 211.67 158.75" xmlns="http://www.w3.org/2000/svg" xmlns:cc="http://creativecommons.org/ns#" xmlns:dc="http://purl.org/dc/elements/1.1/" xmlns:rdf="http://www.w3.org/1999/02/22-rdf-syntax-ns#">
 <metadata>
  <rdf:RDF>
   <cc:Work rdf:about="">
    <dc:format>image/svg+xml</dc:format>
    <dc:type rdf:resource="http://purl.org/dc/dcmitype/StillImage"/>
    <dc:title/>
   </cc:Work>
  </rdf:RDF>
 </metadata>
 <rect x="155.8" y="128.42" width="28.986" height="7.2465" fill="none" stroke="#00f" stroke-width=".35278"/>
 <g id="virtual_rig" transform="translate(55.562 79.186)" stroke-linecap="round" stroke-linejoin="round">
  <g id="maze" stroke="#000" stroke-width="1.0583">
   <circle id="base" r="22.815"/>
   <circle id="light" r="1.4336" fill="#fff"/>
  </g>
  <path id="track" d="m-34.611-48.777v97.553h69.223v-97.553zm34.611 3.8752a29.934 29.934 0 0 1 29.935 29.935v29.934a29.934 29.934 0 0 1-29.935 29.934 29.934 29.934 0 0 1-29.934-29.934v-29.934a29.934 29.934 0 0 1 29.934-29.935z" fill="none" stroke="#000" stroke-width="1.0583"/>
  <circle id="restraint" r="1.7009" fill="#aef" stroke="#08a" stroke-width="1.0583"/>
 </g>
 <g id="graph" transform="translate(157.24 79.375)" stroke-linecap="round" stroke-linejoin="round">
  <circle id="map" r="42" fill="none" stroke="#000" stroke-width="1.0583"/>
  <circle id="marker" r="1.7373" fill="#fac" stroke="#502" stroke-width="1.0583"/>
 </g>
 <text x="44.267323" y="23.15461" xml:space="preserve"><tspan x="44.267323" y="23.15461">Boundry</tspan></text>
 <text x="151.64671" y="23.020973" xml:space="preserve"><tspan x="151.64671" y="23.020973">Map</tspan></text>
 <text x="124.45181" y="133.44618" fill="#000000" font-family="sans-serif" font-size="3.5278px" letter-spacing="0px" stroke-width=".26458" word-spacing="0px" style="line-height:1.25" xml:space="preserve"><tspan x="124.45181" y="133.44618" stroke-width=".26458">current position:</tspan></text>
 <text x="162.58452" y="133.32701" fill="#000000" font-family="sans-serif" font-size="3.5278px" letter-spacing="0px" stroke-width=".26458" word-spacing="0px" style="line-height:1.25" xml:space="preserve"><tspan x="162.58452" y="133.32701" stroke-width=".26458">R, angle</tspan></text>
</svg>
