<?xml version="1.0" encoding="UTF-8" standalone="no"?>
<svg
   xmlns:svg="http://www.w3.org/2000/svg"
   xmlns="http://www.w3.org/2000/svg"
   version="1.1"
   viewBox="-5 -5 10 10"
   >

  <g id="maze"
     transform="matrix(-0.05,1,1,0.05,0,0)">
    <circle
       r="5.0999999"
       cx="0"
       cy="0"
       fill="#007bff"
        />
    <path
       d="m 5,0 a 5,5 0 0 1 -2.5,4.330127 5,5 0 0 1 -5,0 L 0,0 Z"
       class="zoneA"
       style="fill:#aaffaacc" />
    <path
       d="M -2.5,4.330127 A 5,5 0 0 1 -5,1.7948967e-8 5,5 0 0 1 -2.5,-4.330127 L 0,0 Z"
       class="zoneB"
       style="fill:#aaaaffcc" />
    <path
       d="m -2.5,-4.330127 a 5,5 0 0 1 5,0 A 5,5 0 0 1 5,0 H 0 Z"
       class="zoneC"
       id="path8"
       style="fill:#ffaaaacc" />
    <circle
       r="2"
       cx="0"
       cy="0"
       fill="#007bff"
       />
  </g>
</svg>
